# xmcd CD database file
#
# Track frame offsets:
#	150
#	8542
#	38830
#	70215
#	113177
#	137457
#	160365
#	191717
#
# Disc length: 2757 seconds
#
# Revision: 4
# Processed by: cddbd v1.4PL0 Copyright (c) Steve Scherf et al.
# Submitted via: CDex 1.51
#
DISCID=630ac308
DTITLE=James Harman Band - Strictly Live in '85! Vol. 1
DYEAR=1900
DGENRE=Blues
TTITLE0=Intro by John "Juke" Logan
TTITLE1=By-Yourself Dance
TTITLE2=Blues Walked In 
TTITLE3=You're Gone
TTITLE4=That's Not Your Baby
TTITLE5=Legs (Let The Little Girl Dance) 
TTITLE6=Goatman Holler
TTITLE7=Cornbread 
EXTD=
EXTT0=
EXTT1=
EXTT2=
EXTT3=
EXTT4=
EXTT5=
EXTT6=
EXTT7=
PLAYORDER=
